<svg xmlns="http://www.w3.org/2000/svg" width="128" height="128" viewBox="0 0 128 128" version="1.1"><path d="M 50.025 13.731 C 50.039 14.154, 52.837 15.850, 56.242 17.500 C 63.983 21.251, 68.061 26.582, 68.761 33.864 C 69.451 41.049, 66.561 46.252, 55.109 58.441 C 43.939 70.331, 40.752 75.926, 40.182 84.651 C 39.090 101.356, 50.133 110.704, 75.250 114.332 C 79.973 115.015, 80.029 114.009, 75.405 111.519 C 73.428 110.454, 69.856 107.410, 67.468 104.754 C 62.284 98.988, 60.361 92.274, 61.433 83.691 C 62.279 76.922, 67.983 64.864, 74.501 56.065 C 80.396 48.108, 83.728 41.586, 84.529 36.438 C 85.447 30.533, 81.834 24.382, 75.039 20.286 C 70.336 17.450, 67.170 16.497, 52.250 13.425 C 51.013 13.170, 50.011 13.308, 50.025 13.731 M 56.041 27.959 C 53.553 30.447, 50.449 36.552, 49.546 40.733 C 48.920 43.634, 51.267 55, 52.492 55 C 52.732 55, 54.703 53.097, 56.873 50.771 L 60.818 46.541 57.299 42.645 C 54.318 39.346, 53.863 38.232, 54.328 35.365 C 54.630 33.504, 55.836 30.635, 57.007 28.990 C 59.433 25.583, 58.942 25.058, 56.041 27.959 M 72.130 64.809 L 67.927 70.997 71.621 74.240 C 79.329 81.008, 81.109 92.326, 76.536 105.500 C 75.460 108.601, 83.503 99.541, 85.636 95.250 C 86.987 92.532, 87.500 89.297, 87.500 83.500 C 87.500 74.520, 85.543 69.275, 79.647 62.454 L 76.333 58.620 72.130 64.809" stroke="none" fill="#ffffff" fill-rule="evenodd"/></svg>